<?xml version="1.0" standalone="no"?>
<!DOCTYPE svg PUBLIC "-//W3C//DTD SVG 20010904//EN"
 "http://www.w3.org/TR/2001/REC-SVG-20010904/DTD/svg10.dtd">
<svg version="1.0" xmlns="http://www.w3.org/2000/svg"
 width="202" height="134" viewBox="0 0 812.000000 530.000000"
 preserveAspectRatio="xMidYMid meet">

<g transform="translate(0.000000,530.000000) scale(0.100000,-0.100000)"
fill="#E64C6D" stroke="none">
<path d="M5687 5275 c-26 -9 -63 -39 -109 -89 -98 -106 -105 -109 -269 -110
-134 -1 -136 -1 -179 -31 -103 -71 -222 -286 -348 -625 -80 -217 -208 -653
-196 -671 11 -18 156 -131 250 -195 118 -80 310 -175 414 -204 106 -30 266
-37 350 -16 92 24 134 46 257 137 118 88 278 171 361 188 29 6 86 11 126 11
151 0 253 38 373 139 168 141 286 375 347 685 13 67 27 142 30 169 l6 48 -98
62 c-399 259 -801 453 -1036 501 -92 19 -228 20 -279 1z m628 -551 c44 -8 113
-24 153 -36 62 -18 73 -24 70 -41 -2 -11 -14 -28 -28 -38 -39 -28 -1353 -538
-1402 -545 -77 -9 -79 4 -16 99 68 102 201 243 328 350 242 201 550 274 895
211z"/>
<path d="M3839 4229 c-221 -92 -511 -239 -646 -328 -143 -95 -259 -205 -298
-281 -29 -58 -30 -96 -4 -210 17 -76 6 -117 -48 -186 -71 -92 -83 -115 -83
-165 0 -161 205 -499 553 -912 115 -137 85 -130 282 -66 253 82 474 219 568
351 83 115 91 146 93 362 4 259 18 316 110 459 56 87 72 130 80 216 16 169
-50 354 -195 546 -51 68 -179 203 -232 245 l-35 29 -145 -60z m-78 -386 c8
-21 4 -53 -20 -147 -17 -67 -82 -337 -146 -601 -64 -264 -121 -495 -128 -513
-6 -18 -21 -41 -33 -53 l-21 -20 -26 59 c-62 137 -114 425 -103 563 18 222
125 437 303 611 61 60 143 127 156 127 4 1 12 -11 18 -26z"/>
<path d="M7340 4055 l-60 -55 -77 0 -76 0 -43 -45 c-69 -71 -145 -249 -225
-523 l-31 -107 34 -28 c102 -87 235 -160 335 -183 113 -26 186 -7 298 76 83
62 129 81 228 91 107 11 160 33 220 94 78 78 149 243 163 379 l6 63 -93 59
c-229 143 -449 234 -567 234 -49 0 -56 -3 -112 -55z m408 -239 c75 -16 95 -31
70 -50 -24 -17 -711 -286 -732 -286 -9 0 -16 5 -16 11 0 39 168 219 250 267
83 50 166 71 270 71 52 0 124 -6 158 -13z"/>
<path d="M1505 3223 c-217 -11 -330 -24 -343 -40 -20 -27 -79 -219 -97 -317
-21 -111 -21 -272 -1 -349 35 -128 78 -182 231 -282 145 -96 204 -159 260
-280 57 -123 77 -148 155 -200 132 -88 319 -125 529 -105 131 12 252 36 262
51 3 6 20 73 38 150 97 427 114 724 51 891 -25 69 -58 99 -139 129 -87 33
-111 59 -144 163 -25 75 -33 90 -65 111 -99 65 -387 96 -737 78z m131 -288
c114 -33 334 -141 403 -198 150 -125 243 -301 276 -521 13 -90 12 -157 -4
-156 -23 2 -89 69 -406 420 -365 403 -378 418 -390 458 -9 29 8 29 121 -3z"/>
<path d="M5330 3070 c-22 -5 -53 -28 -88 -65 -29 -30 -64 -60 -78 -65 -14 -6
-62 -10 -107 -10 -92 0 -116 -10 -165 -73 -44 -55 -113 -194 -165 -333 -47
-123 -137 -421 -137 -452 0 -39 239 -201 373 -253 63 -24 103 -33 172 -36 133
-8 148 -2 346 131 98 66 154 86 274 96 125 10 183 36 271 124 101 101 189 312
209 502 l6 59 -38 24 c-407 261 -724 388 -873 351z m426 -374 c107 -23 127
-32 115 -55 -6 -10 -23 -23 -38 -29 -759 -300 -943 -365 -943 -334 0 24 86
130 177 218 133 130 220 178 378 210 81 16 207 12 311 -10z"/>
<path d="M1332 1615 c-103 -56 -133 -57 -250 -9 -111 46 -157 47 -237 6 -121
-62 -300 -228 -491 -457 -76 -91 -334 -433 -341 -453 -3 -7 20 -55 52 -108
154 -259 350 -460 523 -536 134 -60 236 -63 411 -13 67 19 147 39 178 45 92
17 210 12 288 -11 175 -51 190 -54 275 -41 201 29 388 153 555 367 91 118 195
290 195 325 0 13 -111 160 -240 320 -114 140 -369 398 -465 469 -113 84 -221
133 -302 137 -65 4 -72 2 -151 -41z m160 -495 c151 -33 298 -102 446 -206 34
-25 62 -49 62 -54 0 -5 -10 -16 -22 -24 -19 -12 -146 -18 -709 -31 -628 -15
-689 -15 -724 -1 l-38 16 24 26 c27 29 151 110 224 146 88 44 283 119 348 133
95 20 285 18 389 -5z"/>
</g>
</svg>
