<?xml version="1.0" standalone="no"?>
<!DOCTYPE svg PUBLIC "-//W3C//DTD SVG 20010904//EN"
 "http://www.w3.org/TR/2001/REC-SVG-20010904/DTD/svg10.dtd">
<svg version="1.0" xmlns="http://www.w3.org/2000/svg"
 width="202" height="134" viewBox="0 0 812.000000 530.000000"
 preserveAspectRatio="xMidYMid meet">

<g transform="translate(0.000000,530.000000) scale(0.100000,-0.100000)"
fill="#E64C6D" stroke="none">
<path d="M2195 5283 c-290 -64 -601 -210 -1034 -483 l-133 -85 6 -74 c3 -40
18 -125 32 -189 83 -369 240 -613 469 -729 74 -38 97 -43 240 -52 197 -13 297
-54 501 -207 151 -112 235 -144 384 -144 222 0 479 113 765 335 131 102 124
79 76 257 -23 84 -75 252 -115 373 -152 453 -293 713 -422 776 -42 20 -56 21
-153 16 -145 -7 -167 1 -261 102 -92 99 -119 111 -242 110 -51 -1 -102 -3
-113 -6z m-36 -543 c134 -14 255 -50 372 -112 114 -59 152 -90 320 -257 110
-110 229 -261 229 -292 0 -15 -49 -22 -89 -11 -84 21 -1364 528 -1387 549 -13
12 -24 28 -24 36 0 30 269 88 446 96 18 0 77 -4 133 -9z"/>
<path d="M4026 4187 c-124 -122 -210 -236 -271 -360 -57 -116 -77 -198 -78
-312 -1 -110 16 -164 83 -271 28 -43 59 -102 70 -130 28 -77 44 -214 36 -329
-8 -123 3 -189 49 -280 96 -197 397 -380 767 -469 25 -6 35 3 124 106 122 143
316 402 388 516 114 186 166 311 166 402 0 55 -3 61 -60 136 -83 108 -89 132
-62 247 25 105 22 129 -29 208 -113 177 -508 415 -1026 618 l-52 20 -105 -102z
m397 -346 c58 -40 215 -204 258 -271 55 -83 106 -190 130 -272 50 -172 23
-474 -63 -701 -33 -86 -49 -95 -79 -42 -19 32 -297 1157 -306 1237 -5 46 0 78
12 78 4 0 25 -13 48 -29z"/>
<path d="M545 4091 c-124 -36 -275 -111 -464 -230 l-73 -46 5 -47 c18 -150 80
-300 156 -381 68 -72 119 -96 228 -106 98 -9 133 -23 254 -106 133 -91 233
-95 401 -13 83 39 225 138 234 162 3 7 -11 67 -30 133 -74 256 -159 446 -227
508 -38 34 -42 35 -116 35 l-76 0 -43 44 c-23 24 -51 49 -62 55 -30 16 -118
12 -187 -8z m122 -275 c84 -22 141 -55 221 -125 75 -65 162 -171 162 -197 0
-8 -7 -14 -15 -14 -15 0 -688 260 -726 281 -26 14 -24 25 9 38 80 32 259 41
349 17z"/>
<path d="M6180 3220 c-168 -17 -267 -45 -317 -92 -12 -11 -34 -56 -48 -99 -15
-43 -35 -89 -45 -102 -11 -14 -56 -39 -100 -57 -56 -23 -88 -42 -104 -64 -100
-132 -91 -501 24 -985 l31 -128 52 -11 c193 -41 388 -48 522 -18 179 40 309
134 359 261 54 137 119 212 264 303 141 88 193 147 233 264 29 82 31 271 5
393 -17 77 -79 278 -94 302 -16 26 -595 51 -782 33z m430 -270 c0 -31 -60
-103 -385 -463 -323 -357 -406 -440 -421 -424 -19 19 9 225 46 331 60 176 192
334 350 419 113 61 217 104 304 127 83 22 106 24 106 10z"/>
<path d="M2655 3069 c-143 -23 -400 -140 -648 -294 l-128 -80 7 -50 c27 -222
123 -443 232 -536 80 -69 134 -90 245 -99 143 -12 212 -40 337 -135 96 -73
134 -88 237 -93 75 -4 105 0 165 18 121 37 245 106 370 206 l67 54 -30 109
c-72 269 -170 523 -252 649 -65 100 -81 109 -204 113 l-102 4 -64 63 c-81 80
-115 91 -232 71z m78 -375 c109 -28 206 -86 315 -190 88 -83 182 -199 182
-225 0 -5 -15 -9 -32 -9 -41 0 -905 336 -933 362 -20 19 -20 19 -1 33 18 14
80 29 181 46 68 11 214 2 288 -17z"/>
<path d="M6553 1640 c-213 -76 -505 -351 -835 -787 -49 -64 -88 -121 -88 -127
0 -7 23 -52 51 -101 216 -379 486 -588 759 -589 68 0 104 6 184 32 80 26 115
32 187 32 102 0 148 -8 318 -57 112 -32 133 -35 215 -31 99 5 170 29 274 89
81 48 276 245 354 359 68 98 138 219 138 237 0 6 -53 82 -118 169 -378 507
-666 779 -822 777 -29 0 -75 -13 -128 -37 -111 -48 -141 -47 -252 9 -103 52
-151 57 -237 25z m562 -544 c61 -20 164 -63 230 -96 114 -55 265 -153 265
-172 0 -5 -16 -16 -36 -24 -33 -14 -108 -14 -718 1 -681 16 -731 20 -731 52 0
35 260 188 395 233 119 40 187 49 340 46 137 -2 151 -5 255 -40z"/>
</g>
</svg>
